<svg width="512" height="512" xmlns="http://www.w3.org/2000/svg">
 <g>
  <title>Layer 1</title>
  <rect x="0" y="0" id="svg_3" fill="#3949AB" height="512" width="512"/>
  <rect x="0" y="0" id="svg_1" fill="#3949AB" height="512" width="512"/>
  <path stroke="#FFF" id="svg_2" stroke-width="30" stroke-linejoin="round" stroke-linecap="round" fill="none" d="m195.40095,262.05374l60.5386,0l0,60.5386m-108.84826,-60.5386l-0.12089,0m60.65949,60.5386l-0.12089,0m48.55143,48.43054l-0.12089,0m109.09003,-108.96914l-0.12089,0m-217.93829,60.5386l18.16152,0m133.1847,-60.5386l24.21499,0m-175.56121,108.96914l60.5386,0m48.43054,-230.04578l0,72.6461m67.80321,157.39968l21.79383,0c6.78106,0 10.17045,0 12.76131,-1.31955c2.2787,-1.1612 4.13004,-3.01254 5.29125,-5.29125c1.31955,-2.59085 1.31955,-5.98025 1.31955,-12.76131l0,-21.79383c0,-6.78163 0,-10.17102 -1.31955,-12.76188c-1.1612,-2.27814 -3.01254,-4.12948 -5.29125,-5.29068c-2.59085,-1.32012 -5.98025,-1.32012 -12.76131,-1.32012l-21.79383,0c-6.78163,0 -10.17102,0 -12.76188,1.32012c-2.27814,1.1612 -4.12948,3.01254 -5.29068,5.29068c-1.32012,2.59085 -1.32012,5.98025 -1.32012,12.76188l0,21.79383c0,6.78106 0,10.17045 1.32012,12.76131c1.1612,2.2787 3.01254,4.13004 5.29068,5.29125c2.59085,1.31955 5.98025,1.31955 12.76188,1.31955zm0,-157.39968l21.79383,0c6.78106,0 10.17045,0 12.76131,-1.32012c2.2787,-1.1612 4.13004,-3.01254 5.29125,-5.29068c1.31955,-2.59085 1.31955,-5.98025 1.31955,-12.76188l0,-21.79383c0,-6.78106 0,-10.17045 -1.31955,-12.76131c-1.1612,-2.2787 -3.01254,-4.13004 -5.29125,-5.29125c-2.59085,-1.31955 -5.98025,-1.31955 -12.76131,-1.31955l-21.79383,0c-6.78163,0 -10.17102,0 -12.76188,1.31955c-2.27814,1.1612 -4.12948,3.01254 -5.29068,5.29125c-1.32012,2.59085 -1.32012,5.98025 -1.32012,12.76131l0,21.79383c0,6.78163 0,10.17102 1.32012,12.76188c1.1612,2.27814 3.01254,4.12948 5.29068,5.29068c2.59085,1.32012 5.98025,1.32012 12.76188,1.32012zm-157.40025,0l21.79383,0c6.78163,0 10.17102,0 12.76188,-1.32012c2.27814,-1.1612 4.12948,-3.01254 5.29068,-5.29068c1.32012,-2.59085 1.32012,-5.98025 1.32012,-12.76188l0,-21.79383c0,-6.78106 0,-10.17045 -1.32012,-12.76131c-1.1612,-2.2787 -3.01254,-4.13004 -5.29068,-5.29125c-2.59085,-1.31955 -5.98025,-1.31955 -12.76188,-1.31955l-21.79383,0c-6.78106,0 -10.17045,0 -12.76131,1.31955c-2.2787,1.1612 -4.13004,3.01254 -5.29125,5.29125c-1.31955,2.59085 -1.31955,5.98025 -1.31955,12.76131l0,21.79383c0,6.78163 0,10.17102 1.31955,12.76188c1.1612,2.27814 3.01254,4.12948 5.29125,5.29068c2.59085,1.32012 5.98025,1.32012 12.76131,1.32012z"/>
 </g>

</svg>