<svg xmlns="http://www.w3.org/2000/svg" viewBox="0 0 512 512">
  <rect width="512" height="512" rx="120" fill="#3949AB"/>
  <path d="M149.333 256H256v106.667M64.213 256H64M170.88 362.667H170.667M256.213 448H256M448.213 256H448M64 362.667H96M330.667 256H373.333M64 448H170.667M256 42.667V170.667M375.467 448H413.867C425.815 448 431.787 448 436.352 445.675C440.367 443.629 443.629 440.367 445.675 436.352C448 431.787 448 425.815 448 413.867V375.467C448 363.518 448 357.546 445.675 352.981C443.629 348.967 440.367 345.705 436.352 343.659C431.787 341.333 425.815 341.333 413.867 341.333H375.467C363.518 341.333 357.546 341.333 352.981 343.659C348.967 345.705 345.705 348.967 343.659 352.981C341.333 357.546 341.333 363.518 341.333 375.467V413.867C341.333 425.815 341.333 431.787 343.659 436.352C345.705 440.367 348.967 443.629 352.981 445.675C357.546 448 363.518 448 375.467 448ZM375.467 170.667H413.867C425.815 170.667 431.787 170.667 436.352 168.341C440.367 166.295 443.629 163.033 445.675 159.019C448 154.454 448 148.482 448 136.533V98.133C448 86.185 448 80.213 445.675 75.648C443.629 71.633 440.367 68.371 436.352 66.325C431.787 64 425.815 64 413.867 64H375.467C363.518 64 357.546 64 352.981 66.325C348.967 68.371 345.705 71.633 343.659 75.648C341.333 80.213 341.333 86.185 341.333 98.133V136.533C341.333 148.482 341.333 154.454 343.659 159.019C345.705 163.033 348.967 166.295 352.981 168.341C357.546 170.667 363.518 170.667 375.467 170.667ZM98.133 170.667H136.533C148.482 170.667 154.454 170.667 159.019 168.341C163.033 166.295 166.295 163.033 168.341 159.019C170.667 154.454 170.667 148.482 170.667 136.533V98.133C170.667 86.185 170.667 80.213 168.341 75.648C166.295 71.633 163.033 68.371 159.019 66.325C154.454 64 148.482 64 136.533 64H98.133C86.185 64 80.213 64 75.648 66.325C71.633 68.371 68.371 71.633 66.325 75.648C64 80.213 64 86.185 64 98.133V136.533C64 148.482 64 154.454 66.325 159.019C68.371 163.033 71.633 166.295 75.648 168.341C80.213 170.667 86.185 170.667 98.133 170.667Z" fill="none" stroke="#FFF" stroke-linecap="round" stroke-linejoin="round" stroke-width="42.667"/>
</svg>
